<svg width="92" height="76" viewBox="0 0 92 76" fill="none" xmlns="http://www.w3.org/2000/svg">
<rect width="91" height="75" transform="translate(0.21875 0.294678)" fill="#3475F8"/>
<path d="M58.6329 54.215L58.6328 54.215L58.6403 54.2224C61.2269 56.7551 65.1146 57.9749 70.2034 57.9749C71.7096 57.9749 73.0697 57.8711 74.281 57.6606C75.5329 57.4518 76.541 57.1588 77.2759 56.7631L77.5388 56.6215V56.3228V47.5673V46.8904L76.8918 47.0894C76.2374 47.2908 75.5833 47.4669 74.9295 47.6178C74.305 47.7619 73.6263 47.8354 72.8915 47.8354C70.8996 47.8354 69.5348 47.4098 68.6935 46.6571C67.8589 45.9104 67.4008 44.7613 67.4008 43.1128V26.7161H77.0388H77.5388V26.2161V17.4606V16.9606H77.0388H67.4008V8.5249V7.71584L66.6772 8.0777L55.1568 13.8386L54.8804 13.9768V14.2858V16.9606H48.0842H47.5842V17.4606V26.2161V26.7161H48.0842H54.8804V42.7288C54.8804 47.7681 56.1011 51.6292 58.6329 54.215ZM40.3401 66.4281L40.4406 66.7966H40.8225H52.3429H52.9995L52.8249 66.1636C52.4204 64.6975 52.1181 63.3369 51.9167 62.081C51.766 60.7717 51.6908 59.4888 51.6908 58.2323V40.9517C51.6908 36.1281 50.1649 32.3645 47.059 29.7405C43.9661 27.1276 39.5319 25.8591 33.8334 25.8591C28.3407 25.8591 23.9481 27.0246 20.7106 29.4129C17.4901 31.7887 15.5925 34.8217 15.0596 38.4991L14.9767 39.0708H15.5544H26.5372H26.9164L27.0187 38.7056C27.3425 37.5491 28.0035 36.684 29.0147 36.0852C30.0911 35.4781 31.5569 35.1538 33.4494 35.1538C35.4327 35.1538 36.8267 35.6012 37.7231 36.4079L37.7328 36.4167L37.743 36.4249C38.6828 37.1857 39.1704 38.2614 39.1704 39.7228V41.3038L29.9262 42.6067C29.9259 42.6067 29.9257 42.6067 29.9254 42.6068C24.9535 43.2802 21.0162 44.7627 18.1575 47.0919C15.3217 49.3929 13.9023 52.4566 13.9023 56.2354C13.9023 59.6451 15.1084 62.4243 17.531 64.5239L17.531 64.524L17.5359 64.5281C19.9537 66.5698 23.1771 67.5646 27.1516 67.5646C30.555 67.5646 33.4701 66.8047 35.8708 65.2576C37.3312 64.3164 38.5601 63.1015 39.5596 61.6202C39.5801 62.004 39.6045 62.3729 39.6328 62.7267L39.6336 62.7366L39.6348 62.7464C39.791 64.0483 40.0258 65.2758 40.3401 66.4281ZM31.9891 50.1246L39.1704 49.0242V52.0881C39.1704 53.6387 38.4283 55.0402 36.8302 56.3006C35.2397 57.5041 33.3028 58.1163 30.9917 58.1163C29.5245 58.1163 28.409 57.7983 27.5979 57.2125C26.8243 56.6538 26.4228 55.8422 26.4228 54.6994C26.4228 53.3921 26.8592 52.4139 27.7041 51.7025C28.5747 50.9693 29.9791 50.4261 31.9875 50.1248L31.9891 50.1246Z" fill="#0C011D" stroke="#0C011D"/>
</svg>
