<svg width="602" height="100" viewBox="0 0 602 100" fill="none" xmlns="http://www.w3.org/2000/svg">
<path d="M1.91335 82.4059L1.54196 83.415H2.61719H14.1832H14.7174L14.892 82.9101L20.3111 67.2406H45.5764L50.9733 82.9092L51.1475 83.415H51.6824H63.7906H64.8645L64.4948 82.4068L40.6399 17.3479L40.4595 16.8561H39.9357H37.7357H36.6828H29.2733H28.2217H26.5625H26.0393L25.8586 17.347L1.91335 82.4059ZM24.0797 56.3432L32.9691 30.639L41.8228 56.3432H24.0797ZM70.6856 82.665V83.415H71.4356H82.8209H83.5709V82.665V57.3643C83.5709 55.0039 84.0587 52.9657 85.0102 51.2271C86.0299 49.4738 87.3798 48.128 89.064 47.1737C90.7534 46.2163 92.6131 45.735 94.658 45.735C96.9945 45.735 98.6761 46.3591 99.8203 47.5033L99.8324 47.5153L99.845 47.5268C101.016 48.5961 101.679 50.3412 101.679 52.9367V82.665V83.415H102.429H113.905H114.655V82.665V57.3643C114.655 55.0003 115.144 52.9594 116.098 51.219C117.057 49.4705 118.375 48.1272 120.057 47.1737C121.744 46.2181 123.633 45.735 125.742 45.735C128.078 45.735 129.76 46.3591 130.904 47.5033L130.91 47.5094L130.917 47.5155C132.035 48.583 132.672 50.3325 132.672 52.9367V82.665V83.415H133.422H144.898H145.648V82.665V50.6777C145.648 45.9973 144.207 42.179 141.272 39.3043C138.388 36.3595 134.412 34.928 129.446 34.928C125.279 34.928 121.578 35.9873 118.372 38.1234C116.293 39.4694 114.558 41.1228 113.168 43.0796C112.477 41.654 111.543 40.3628 110.366 39.2108C107.484 36.3309 103.572 34.928 98.7242 34.928C94.6721 34.928 91.0877 35.9899 88.0001 38.1309C86.1784 39.3585 84.6115 40.84 83.2998 42.5715V36.5816V35.8316H82.5498H71.4356H70.6856V36.5816V82.665ZM154.236 72.364L154.24 72.3723C156.356 76.1048 159.285 79.0338 163.017 81.1489L163.022 81.1515C166.825 83.2711 171.231 84.3186 176.218 84.3186C181.756 84.3186 186.405 83.0254 190.114 80.3862C193.862 77.762 196.515 74.1973 198.07 69.7185L198.416 68.7225H197.362H186.609H186.125L185.926 69.1638C185.152 70.8765 183.949 72.1329 182.298 72.9582C180.613 73.8006 178.624 74.2344 176.308 74.2344C172.323 74.2344 169.325 73.0014 167.208 70.6091C165.77 68.8969 164.806 66.6416 164.35 63.8069H198.266H198.901L199.005 63.1802C199.129 62.4373 199.222 61.6941 199.284 60.9506C199.346 60.204 199.377 59.3998 199.377 58.539C199.377 53.8571 198.421 49.7239 196.485 46.1628C194.551 42.6071 191.83 39.8532 188.332 37.9157C184.828 35.9143 180.72 34.928 176.037 34.928C171.111 34.928 166.764 35.9753 163.021 38.0953C159.286 40.1506 156.356 43.0509 154.24 46.7839L154.238 46.7875C152.179 50.4697 151.161 54.726 151.161 59.5329C151.161 64.3402 152.179 68.6242 154.236 72.364ZM183.617 48.0219C184.982 49.5113 185.871 51.6027 186.226 54.3553H164.582C165.099 52.0554 165.982 50.1862 167.211 48.7243C169.342 46.2591 172.196 45.0121 175.856 45.0121C179.248 45.0121 181.8 46.04 183.617 48.0219ZM205.422 82.665V83.415H206.172H217.557H218.307V82.665V58.6293C218.307 54.5278 219.361 51.7039 221.308 49.9732C223.284 48.2171 226.354 47.2711 230.659 47.2711C231.425 47.2711 232.059 47.3007 232.564 47.3569L232.606 47.3615H232.647C233.149 47.3615 233.461 47.4195 233.634 47.4886L234.662 47.9V46.7922V36.0394V35.552L234.217 35.3541C233.52 35.0445 232.479 34.928 231.201 34.928C227.435 34.928 224.165 35.999 221.429 38.1619C220.106 39.2081 218.976 40.4791 218.036 41.9676V36.5816V35.8316H217.286H206.172H205.422V36.5816V82.665ZM238.949 82.665V83.415H239.699H251.084H251.834V82.665V36.5816V35.8316H251.084H239.699H238.949V36.5816V82.665ZM238.407 28.9914V29.7414H239.157H251.536H252.286V28.9914V16.4314V15.6814H251.536H239.157H238.407V16.4314V28.9914Z" fill="#3475F8" stroke="#3475F8" stroke-width="1.5"/>
<rect x="261.684" y="1.26514" width="338.955" height="97.4695" fill="#3475F8"/>
<rect x="261.684" y="1.26514" width="338.955" height="97.4695" stroke="#3475F8" stroke-width="1.5"/>
<mask id="path-3-outside-1_857_17" maskUnits="userSpaceOnUse" x="273.531" y="15.1982" width="316" height="69" fill="black">
<rect fill="white" x="273.531" y="15.1982" width="316" height="69"/>
<path d="M304.176 82.8013C297.451 82.8013 292.441 81.1887 289.148 77.9635C285.922 74.6697 284.31 69.6947 284.31 63.0384V24.919L299.749 17.1982V63.5531C299.749 65.8862 300.401 67.6361 301.705 68.8026C303.009 69.9692 305.033 70.5524 307.778 70.5524C308.807 70.5524 309.768 70.4495 310.66 70.2437C311.552 70.0378 312.444 69.7976 313.336 69.5231V81.2573C312.444 81.7377 311.175 82.1151 309.528 82.3896C307.95 82.664 306.166 82.8013 304.176 82.8013ZM274.531 40.9082V29.174H313.336V40.9082H274.531Z"/>
<path d="M322.59 81.669V29.174H337.721V41.5258H338.03V81.669H322.59ZM338.03 54.2893L336.691 41.8346C337.927 37.3742 339.951 33.9775 342.764 31.6443C345.578 29.3112 349.077 28.1447 353.263 28.1447C354.567 28.1447 355.528 28.2819 356.145 28.5564V42.9668C355.802 42.8296 355.322 42.7609 354.704 42.7609C354.087 42.6923 353.332 42.658 352.44 42.658C347.499 42.658 343.862 43.5501 341.529 45.3342C339.196 47.0498 338.03 50.0348 338.03 54.2893Z"/>
<path d="M394.733 81.669C394.321 80.1594 394.012 78.5468 393.806 76.8313C393.669 75.1157 393.6 73.1257 393.6 70.8612H393.189V46.0547C393.189 43.9275 392.468 42.2806 391.027 41.114C389.655 39.8789 387.596 39.2613 384.851 39.2613C382.244 39.2613 380.151 39.7073 378.572 40.5994C377.063 41.4915 376.068 42.7953 375.587 44.5108H360.868C361.554 39.7759 363.99 35.8645 368.176 32.7766C372.362 29.6886 378.092 28.1447 385.366 28.1447C392.914 28.1447 398.678 29.8259 402.658 33.1883C406.638 36.5507 408.628 41.3885 408.628 47.7017V70.8612C408.628 72.5768 408.731 74.3266 408.937 76.1107C409.212 77.8263 409.623 79.679 410.172 81.669H394.733ZM376.411 82.6984C371.196 82.6984 367.044 81.3946 363.956 78.787C360.868 76.1107 359.324 72.5768 359.324 68.185C359.324 63.3129 361.143 59.4015 364.78 56.4508C368.485 53.4315 373.632 51.4758 380.219 50.5837L395.556 48.4222V57.3772L382.793 59.3329C380.048 59.7446 378.023 60.4995 376.72 61.5974C375.416 62.6953 374.764 64.205 374.764 66.1264C374.764 67.8419 375.382 69.1457 376.617 70.0378C377.852 70.9299 379.499 71.3759 381.557 71.3759C384.783 71.3759 387.528 70.5181 389.792 68.8026C392.056 67.0185 393.189 64.9598 393.189 62.6267L394.63 70.8612C393.12 74.7726 390.821 77.7233 387.733 79.7133C384.645 81.7034 380.871 82.6984 376.411 82.6984Z"/>
<path d="M456.447 81.669V70.0378L457.477 70.2437C456.79 74.0178 454.732 77.0371 451.301 79.3016C447.938 81.5661 443.89 82.6984 439.155 82.6984C434.351 82.6984 430.166 81.6004 426.597 79.4046C423.098 77.1401 420.387 73.9835 418.466 69.9349C416.544 65.8862 415.584 61.1171 415.584 55.6274C415.584 50.0691 416.579 45.2313 418.569 41.114C420.559 36.9968 423.338 33.8059 426.906 31.5414C430.543 29.2769 434.763 28.1447 439.567 28.1447C444.576 28.1447 448.625 29.3112 451.713 31.6443C454.869 33.9775 456.722 37.1683 457.271 41.217L456.139 41.3199V18.7972H471.578V81.669H456.447ZM444.096 70.3466C447.732 70.3466 450.683 69.0771 452.948 66.5381C455.212 63.9305 456.344 60.225 456.344 55.4215C456.344 50.618 455.178 46.9468 452.845 44.4078C450.58 41.8002 447.595 40.4965 443.89 40.4965C440.321 40.4965 437.371 41.8002 435.038 44.4078C432.773 47.0154 431.641 50.721 431.641 55.5244C431.641 60.3279 432.773 63.9991 435.038 66.5381C437.371 69.0771 440.39 70.3466 444.096 70.3466Z"/>
<path d="M508.626 82.6984C502.794 82.6984 497.716 81.5661 493.393 79.3016C489.069 76.9685 485.707 73.7433 483.305 69.6261C480.972 65.5088 479.806 60.774 479.806 55.4215C479.806 50.0005 480.972 45.2656 483.305 41.217C485.707 37.0997 489.035 33.9088 493.29 31.6443C497.544 29.3112 502.485 28.1447 508.112 28.1447C513.533 28.1447 518.233 29.2426 522.213 31.4385C526.193 33.6343 529.281 36.688 531.477 40.5994C533.673 44.5108 534.771 49.1084 534.771 54.3922C534.771 55.4901 534.737 56.5195 534.668 57.4801C534.599 58.3722 534.496 59.23 534.359 60.0534H488.864V49.8632H521.905L519.228 51.716C519.228 47.4615 518.199 44.3392 516.14 42.3492C514.15 40.2906 511.406 39.2613 507.906 39.2613C503.857 39.2613 500.701 40.6337 498.436 43.3785C496.24 46.1234 495.142 50.2406 495.142 55.7303C495.142 61.0827 496.24 65.0628 498.436 67.6704C500.701 70.278 504.063 71.5818 508.523 71.5818C510.994 71.5818 513.121 71.17 514.905 70.3466C516.689 69.5231 518.027 68.185 518.92 66.3323H533.433C531.717 71.4102 528.767 75.4245 524.581 78.3752C520.464 81.2573 515.145 82.6984 508.626 82.6984Z"/>
<path d="M564.734 82.6984C557.049 82.6984 550.942 81.1544 546.413 78.0664C541.884 74.9785 539.413 70.724 539.002 65.3029H552.794C553.138 67.6361 554.304 69.4202 556.294 70.6554C558.353 71.8219 561.166 72.4052 564.734 72.4052C567.96 72.4052 570.293 71.9592 571.734 71.0671C573.243 70.1064 573.998 68.7683 573.998 67.0528C573.998 65.749 573.552 64.754 572.66 64.0678C571.837 63.3129 570.293 62.6953 568.028 62.215L559.588 60.4652C553.343 59.1614 548.746 57.2057 545.795 54.5981C542.844 51.9218 541.369 48.4908 541.369 44.3049C541.369 39.227 543.325 35.2813 547.236 32.4678C551.148 29.5857 556.603 28.1447 563.602 28.1447C570.533 28.1447 576.057 29.5514 580.174 32.3649C584.292 35.1097 586.556 38.9525 586.968 43.8932H573.175C572.9 42.109 571.94 40.7709 570.293 39.8789C568.646 38.9182 566.313 38.4378 563.293 38.4378C560.549 38.4378 558.49 38.8495 557.118 39.673C555.814 40.4278 555.162 41.5258 555.162 42.9668C555.162 44.202 555.711 45.197 556.809 45.9518C557.907 46.638 559.725 47.2556 562.264 47.8046L571.734 49.7603C577.018 50.8582 580.998 52.9169 583.674 55.9362C586.419 58.8869 587.791 62.3865 587.791 66.4352C587.791 71.5818 585.767 75.5961 581.718 78.4782C577.738 81.2916 572.077 82.6984 564.734 82.6984Z"/>
</mask>
<path d="M304.176 82.8013C297.451 82.8013 292.441 81.1887 289.148 77.9635C285.922 74.6697 284.31 69.6947 284.31 63.0384V24.919L299.749 17.1982V63.5531C299.749 65.8862 300.401 67.6361 301.705 68.8026C303.009 69.9692 305.033 70.5524 307.778 70.5524C308.807 70.5524 309.768 70.4495 310.66 70.2437C311.552 70.0378 312.444 69.7976 313.336 69.5231V81.2573C312.444 81.7377 311.175 82.1151 309.528 82.3896C307.95 82.664 306.166 82.8013 304.176 82.8013ZM274.531 40.9082V29.174H313.336V40.9082H274.531Z" fill="#0C011D"/>
<path d="M322.59 81.669V29.174H337.721V41.5258H338.03V81.669H322.59ZM338.03 54.2893L336.691 41.8346C337.927 37.3742 339.951 33.9775 342.764 31.6443C345.578 29.3112 349.077 28.1447 353.263 28.1447C354.567 28.1447 355.528 28.2819 356.145 28.5564V42.9668C355.802 42.8296 355.322 42.7609 354.704 42.7609C354.087 42.6923 353.332 42.658 352.44 42.658C347.499 42.658 343.862 43.5501 341.529 45.3342C339.196 47.0498 338.03 50.0348 338.03 54.2893Z" fill="#0C011D"/>
<path d="M394.733 81.669C394.321 80.1594 394.012 78.5468 393.806 76.8313C393.669 75.1157 393.6 73.1257 393.6 70.8612H393.189V46.0547C393.189 43.9275 392.468 42.2806 391.027 41.114C389.655 39.8789 387.596 39.2613 384.851 39.2613C382.244 39.2613 380.151 39.7073 378.572 40.5994C377.063 41.4915 376.068 42.7953 375.587 44.5108H360.868C361.554 39.7759 363.99 35.8645 368.176 32.7766C372.362 29.6886 378.092 28.1447 385.366 28.1447C392.914 28.1447 398.678 29.8259 402.658 33.1883C406.638 36.5507 408.628 41.3885 408.628 47.7017V70.8612C408.628 72.5768 408.731 74.3266 408.937 76.1107C409.212 77.8263 409.623 79.679 410.172 81.669H394.733ZM376.411 82.6984C371.196 82.6984 367.044 81.3946 363.956 78.787C360.868 76.1107 359.324 72.5768 359.324 68.185C359.324 63.3129 361.143 59.4015 364.78 56.4508C368.485 53.4315 373.632 51.4758 380.219 50.5837L395.556 48.4222V57.3772L382.793 59.3329C380.048 59.7446 378.023 60.4995 376.72 61.5974C375.416 62.6953 374.764 64.205 374.764 66.1264C374.764 67.8419 375.382 69.1457 376.617 70.0378C377.852 70.9299 379.499 71.3759 381.557 71.3759C384.783 71.3759 387.528 70.5181 389.792 68.8026C392.056 67.0185 393.189 64.9598 393.189 62.6267L394.63 70.8612C393.12 74.7726 390.821 77.7233 387.733 79.7133C384.645 81.7034 380.871 82.6984 376.411 82.6984Z" fill="#0C011D"/>
<path d="M456.447 81.669V70.0378L457.477 70.2437C456.79 74.0178 454.732 77.0371 451.301 79.3016C447.938 81.5661 443.89 82.6984 439.155 82.6984C434.351 82.6984 430.166 81.6004 426.597 79.4046C423.098 77.1401 420.387 73.9835 418.466 69.9349C416.544 65.8862 415.584 61.1171 415.584 55.6274C415.584 50.0691 416.579 45.2313 418.569 41.114C420.559 36.9968 423.338 33.8059 426.906 31.5414C430.543 29.2769 434.763 28.1447 439.567 28.1447C444.576 28.1447 448.625 29.3112 451.713 31.6443C454.869 33.9775 456.722 37.1683 457.271 41.217L456.139 41.3199V18.7972H471.578V81.669H456.447ZM444.096 70.3466C447.732 70.3466 450.683 69.0771 452.948 66.5381C455.212 63.9305 456.344 60.225 456.344 55.4215C456.344 50.618 455.178 46.9468 452.845 44.4078C450.58 41.8002 447.595 40.4965 443.89 40.4965C440.321 40.4965 437.371 41.8002 435.038 44.4078C432.773 47.0154 431.641 50.721 431.641 55.5244C431.641 60.3279 432.773 63.9991 435.038 66.5381C437.371 69.0771 440.39 70.3466 444.096 70.3466Z" fill="#0C011D"/>
<path d="M508.626 82.6984C502.794 82.6984 497.716 81.5661 493.393 79.3016C489.069 76.9685 485.707 73.7433 483.305 69.6261C480.972 65.5088 479.806 60.774 479.806 55.4215C479.806 50.0005 480.972 45.2656 483.305 41.217C485.707 37.0997 489.035 33.9088 493.29 31.6443C497.544 29.3112 502.485 28.1447 508.112 28.1447C513.533 28.1447 518.233 29.2426 522.213 31.4385C526.193 33.6343 529.281 36.688 531.477 40.5994C533.673 44.5108 534.771 49.1084 534.771 54.3922C534.771 55.4901 534.737 56.5195 534.668 57.4801C534.599 58.3722 534.496 59.23 534.359 60.0534H488.864V49.8632H521.905L519.228 51.716C519.228 47.4615 518.199 44.3392 516.14 42.3492C514.15 40.2906 511.406 39.2613 507.906 39.2613C503.857 39.2613 500.701 40.6337 498.436 43.3785C496.24 46.1234 495.142 50.2406 495.142 55.7303C495.142 61.0827 496.24 65.0628 498.436 67.6704C500.701 70.278 504.063 71.5818 508.523 71.5818C510.994 71.5818 513.121 71.17 514.905 70.3466C516.689 69.5231 518.027 68.185 518.92 66.3323H533.433C531.717 71.4102 528.767 75.4245 524.581 78.3752C520.464 81.2573 515.145 82.6984 508.626 82.6984Z" fill="#0C011D"/>
<path d="M564.734 82.6984C557.049 82.6984 550.942 81.1544 546.413 78.0664C541.884 74.9785 539.413 70.724 539.002 65.3029H552.794C553.138 67.6361 554.304 69.4202 556.294 70.6554C558.353 71.8219 561.166 72.4052 564.734 72.4052C567.96 72.4052 570.293 71.9592 571.734 71.0671C573.243 70.1064 573.998 68.7683 573.998 67.0528C573.998 65.749 573.552 64.754 572.66 64.0678C571.837 63.3129 570.293 62.6953 568.028 62.215L559.588 60.4652C553.343 59.1614 548.746 57.2057 545.795 54.5981C542.844 51.9218 541.369 48.4908 541.369 44.3049C541.369 39.227 543.325 35.2813 547.236 32.4678C551.148 29.5857 556.603 28.1447 563.602 28.1447C570.533 28.1447 576.057 29.5514 580.174 32.3649C584.292 35.1097 586.556 38.9525 586.968 43.8932H573.175C572.9 42.109 571.94 40.7709 570.293 39.8789C568.646 38.9182 566.313 38.4378 563.293 38.4378C560.549 38.4378 558.49 38.8495 557.118 39.673C555.814 40.4278 555.162 41.5258 555.162 42.9668C555.162 44.202 555.711 45.197 556.809 45.9518C557.907 46.638 559.725 47.2556 562.264 47.8046L571.734 49.7603C577.018 50.8582 580.998 52.9169 583.674 55.9362C586.419 58.8869 587.791 62.3865 587.791 66.4352C587.791 71.5818 585.767 75.5961 581.718 78.4782C577.738 81.2916 572.077 82.6984 564.734 82.6984Z" fill="#0C011D"/>
<path d="M304.176 82.8013C297.451 82.8013 292.441 81.1887 289.148 77.9635C285.922 74.6697 284.31 69.6947 284.31 63.0384V24.919L299.749 17.1982V63.5531C299.749 65.8862 300.401 67.6361 301.705 68.8026C303.009 69.9692 305.033 70.5524 307.778 70.5524C308.807 70.5524 309.768 70.4495 310.66 70.2437C311.552 70.0378 312.444 69.7976 313.336 69.5231V81.2573C312.444 81.7377 311.175 82.1151 309.528 82.3896C307.95 82.664 306.166 82.8013 304.176 82.8013ZM274.531 40.9082V29.174H313.336V40.9082H274.531Z" stroke="#0C011D" stroke-width="2" mask="url(#path-3-outside-1_857_17)"/>
<path d="M322.59 81.669V29.174H337.721V41.5258H338.03V81.669H322.59ZM338.03 54.2893L336.691 41.8346C337.927 37.3742 339.951 33.9775 342.764 31.6443C345.578 29.3112 349.077 28.1447 353.263 28.1447C354.567 28.1447 355.528 28.2819 356.145 28.5564V42.9668C355.802 42.8296 355.322 42.7609 354.704 42.7609C354.087 42.6923 353.332 42.658 352.44 42.658C347.499 42.658 343.862 43.5501 341.529 45.3342C339.196 47.0498 338.03 50.0348 338.03 54.2893Z" stroke="#0C011D" stroke-width="2" mask="url(#path-3-outside-1_857_17)"/>
<path d="M394.733 81.669C394.321 80.1594 394.012 78.5468 393.806 76.8313C393.669 75.1157 393.6 73.1257 393.6 70.8612H393.189V46.0547C393.189 43.9275 392.468 42.2806 391.027 41.114C389.655 39.8789 387.596 39.2613 384.851 39.2613C382.244 39.2613 380.151 39.7073 378.572 40.5994C377.063 41.4915 376.068 42.7953 375.587 44.5108H360.868C361.554 39.7759 363.99 35.8645 368.176 32.7766C372.362 29.6886 378.092 28.1447 385.366 28.1447C392.914 28.1447 398.678 29.8259 402.658 33.1883C406.638 36.5507 408.628 41.3885 408.628 47.7017V70.8612C408.628 72.5768 408.731 74.3266 408.937 76.1107C409.212 77.8263 409.623 79.679 410.172 81.669H394.733ZM376.411 82.6984C371.196 82.6984 367.044 81.3946 363.956 78.787C360.868 76.1107 359.324 72.5768 359.324 68.185C359.324 63.3129 361.143 59.4015 364.78 56.4508C368.485 53.4315 373.632 51.4758 380.219 50.5837L395.556 48.4222V57.3772L382.793 59.3329C380.048 59.7446 378.023 60.4995 376.72 61.5974C375.416 62.6953 374.764 64.205 374.764 66.1264C374.764 67.8419 375.382 69.1457 376.617 70.0378C377.852 70.9299 379.499 71.3759 381.557 71.3759C384.783 71.3759 387.528 70.5181 389.792 68.8026C392.056 67.0185 393.189 64.9598 393.189 62.6267L394.63 70.8612C393.12 74.7726 390.821 77.7233 387.733 79.7133C384.645 81.7034 380.871 82.6984 376.411 82.6984Z" stroke="#0C011D" stroke-width="2" mask="url(#path-3-outside-1_857_17)"/>
<path d="M456.447 81.669V70.0378L457.477 70.2437C456.79 74.0178 454.732 77.0371 451.301 79.3016C447.938 81.5661 443.89 82.6984 439.155 82.6984C434.351 82.6984 430.166 81.6004 426.597 79.4046C423.098 77.1401 420.387 73.9835 418.466 69.9349C416.544 65.8862 415.584 61.1171 415.584 55.6274C415.584 50.0691 416.579 45.2313 418.569 41.114C420.559 36.9968 423.338 33.8059 426.906 31.5414C430.543 29.2769 434.763 28.1447 439.567 28.1447C444.576 28.1447 448.625 29.3112 451.713 31.6443C454.869 33.9775 456.722 37.1683 457.271 41.217L456.139 41.3199V18.7972H471.578V81.669H456.447ZM444.096 70.3466C447.732 70.3466 450.683 69.0771 452.948 66.5381C455.212 63.9305 456.344 60.225 456.344 55.4215C456.344 50.618 455.178 46.9468 452.845 44.4078C450.58 41.8002 447.595 40.4965 443.89 40.4965C440.321 40.4965 437.371 41.8002 435.038 44.4078C432.773 47.0154 431.641 50.721 431.641 55.5244C431.641 60.3279 432.773 63.9991 435.038 66.5381C437.371 69.0771 440.39 70.3466 444.096 70.3466Z" stroke="#0C011D" stroke-width="2" mask="url(#path-3-outside-1_857_17)"/>
<path d="M508.626 82.6984C502.794 82.6984 497.716 81.5661 493.393 79.3016C489.069 76.9685 485.707 73.7433 483.305 69.6261C480.972 65.5088 479.806 60.774 479.806 55.4215C479.806 50.0005 480.972 45.2656 483.305 41.217C485.707 37.0997 489.035 33.9088 493.29 31.6443C497.544 29.3112 502.485 28.1447 508.112 28.1447C513.533 28.1447 518.233 29.2426 522.213 31.4385C526.193 33.6343 529.281 36.688 531.477 40.5994C533.673 44.5108 534.771 49.1084 534.771 54.3922C534.771 55.4901 534.737 56.5195 534.668 57.4801C534.599 58.3722 534.496 59.23 534.359 60.0534H488.864V49.8632H521.905L519.228 51.716C519.228 47.4615 518.199 44.3392 516.14 42.3492C514.15 40.2906 511.406 39.2613 507.906 39.2613C503.857 39.2613 500.701 40.6337 498.436 43.3785C496.24 46.1234 495.142 50.2406 495.142 55.7303C495.142 61.0827 496.24 65.0628 498.436 67.6704C500.701 70.278 504.063 71.5818 508.523 71.5818C510.994 71.5818 513.121 71.17 514.905 70.3466C516.689 69.5231 518.027 68.185 518.92 66.3323H533.433C531.717 71.4102 528.767 75.4245 524.581 78.3752C520.464 81.2573 515.145 82.6984 508.626 82.6984Z" stroke="#0C011D" stroke-width="2" mask="url(#path-3-outside-1_857_17)"/>
<path d="M564.734 82.6984C557.049 82.6984 550.942 81.1544 546.413 78.0664C541.884 74.9785 539.413 70.724 539.002 65.3029H552.794C553.138 67.6361 554.304 69.4202 556.294 70.6554C558.353 71.8219 561.166 72.4052 564.734 72.4052C567.96 72.4052 570.293 71.9592 571.734 71.0671C573.243 70.1064 573.998 68.7683 573.998 67.0528C573.998 65.749 573.552 64.754 572.66 64.0678C571.837 63.3129 570.293 62.6953 568.028 62.215L559.588 60.4652C553.343 59.1614 548.746 57.2057 545.795 54.5981C542.844 51.9218 541.369 48.4908 541.369 44.3049C541.369 39.227 543.325 35.2813 547.236 32.4678C551.148 29.5857 556.603 28.1447 563.602 28.1447C570.533 28.1447 576.057 29.5514 580.174 32.3649C584.292 35.1097 586.556 38.9525 586.968 43.8932H573.175C572.9 42.109 571.94 40.7709 570.293 39.8789C568.646 38.9182 566.313 38.4378 563.293 38.4378C560.549 38.4378 558.49 38.8495 557.118 39.673C555.814 40.4278 555.162 41.5258 555.162 42.9668C555.162 44.202 555.711 45.197 556.809 45.9518C557.907 46.638 559.725 47.2556 562.264 47.8046L571.734 49.7603C577.018 50.8582 580.998 52.9169 583.674 55.9362C586.419 58.8869 587.791 62.3865 587.791 66.4352C587.791 71.5818 585.767 75.5961 581.718 78.4782C577.738 81.2916 572.077 82.6984 564.734 82.6984Z" stroke="#0C011D" stroke-width="2" mask="url(#path-3-outside-1_857_17)"/>
</svg>
